<svg xmlns="http://www.w3.org/2000/svg" viewBox="0 0 345 141"><defs><style>.cls-1{fill:#4cabe5;}</style></defs><title>logo</title><g id="Layer_2" data-name="Layer 2"><path class="cls-1" d="M114.72,102.49c-17.31,0-27.63-9.32-30.69-27.69-3.81-22.85-13.71-34-30.26-34-14,0-28.45,9.22-29.08,29.82a1.4,1.4,0,0,1-2.79-.09A35.53,35.53,0,0,1,30.35,48c5.78-6.52,13.88-10,23.42-10,9.75,0,17.56,3.62,23.19,10.77,4.75,6,8,14.36,9.82,25.52,2.84,17.06,12,25.35,27.94,25.35a26.34,26.34,0,0,0,19.38-7.92,28.72,28.72,0,0,0,7.83-21.11,1.4,1.4,0,0,1,1.36-1.44,1.38,1.38,0,0,1,1.43,1.36,31.39,31.39,0,0,1-8.62,23.13A29.43,29.43,0,0,1,114.72,102.49Z"/><rect class="cls-1" x="104.48" y="50.84" width="5.58" height="6.98"/><rect class="cls-1" x="116.81" y="51.08" width="5.58" height="6.98"/><path class="cls-1" d="M156.34,36.6h13.55v3H159.26v7.54h9.9v3.06h-9.9V60.64h-2.92Z"/><path class="cls-1" d="M185.91,60.64h-2.74V58.16h-.06a4.38,4.38,0,0,1-1.8,2.09,5.82,5.82,0,0,1-5,.44,4.39,4.39,0,0,1-1.66-1.1,5.49,5.49,0,0,1-1.15-1.92,8.19,8.19,0,0,1-.42-2.77V44.54h2.74v9.51a6,6,0,0,0,.27,1.92,3.63,3.63,0,0,0,.73,1.29,2.82,2.82,0,0,0,1,.72,3.72,3.72,0,0,0,1.24.22,4.12,4.12,0,0,0,1.58-.31,3.31,3.31,0,0,0,1.28-1,4.58,4.58,0,0,0,.85-1.68,8.2,8.2,0,0,0,.31-2.41V44.54h2.74Z"/><path class="cls-1" d="M190.05,44.54h2.74V47h.06a4.36,4.36,0,0,1,1.8-2.08,5.39,5.39,0,0,1,2.95-.8,5.89,5.89,0,0,1,2,.35,4.37,4.37,0,0,1,1.67,1.11,5.24,5.24,0,0,1,1.14,1.92,7.92,7.92,0,0,1,.43,2.76V60.64H200.1V51.13a6.09,6.09,0,0,0-.27-1.92,3.79,3.79,0,0,0-.73-1.29,2.87,2.87,0,0,0-1.06-.71,3.39,3.39,0,0,0-1.23-.22,3.91,3.91,0,0,0-1.58.31,3.21,3.21,0,0,0-1.28,1,4.58,4.58,0,0,0-.85,1.68,8.25,8.25,0,0,0-.31,2.41v8.29h-2.74Z"/><path class="cls-1" d="M221.45,60.64h-2.74V58.33h-.06a5.4,5.4,0,0,1-2.18,2,6.09,6.09,0,0,1-2.85.72,7,7,0,0,1-3-.65,6.76,6.76,0,0,1-2.31-1.8,8.4,8.4,0,0,1-1.48-2.68,10.47,10.47,0,0,1-.52-3.33,10.58,10.58,0,0,1,.52-3.34,8.09,8.09,0,0,1,1.48-2.68,6.86,6.86,0,0,1,2.31-1.79,7,7,0,0,1,3-.64,6.12,6.12,0,0,1,2.93.73,5.22,5.22,0,0,1,2.1,2h.06V35h2.74ZM214,58.2a4.56,4.56,0,0,0,2-.43,4.45,4.45,0,0,0,1.49-1.15,5.34,5.34,0,0,0,.94-1.77,7.09,7.09,0,0,0,.34-2.26,7.18,7.18,0,0,0-.34-2.26,5.29,5.29,0,0,0-.94-1.76,4.48,4.48,0,0,0-1.49-1.16,4.88,4.88,0,0,0-4,0,4.38,4.38,0,0,0-1.49,1.16,5.13,5.13,0,0,0-1,1.76,7.48,7.48,0,0,0-.33,2.26,7.39,7.39,0,0,0,.33,2.26,5.18,5.18,0,0,0,1,1.77A4.35,4.35,0,0,0,212,57.77,4.56,4.56,0,0,0,214,58.2Z"/><path class="cls-1" d="M225.65,46.51a7.62,7.62,0,0,1,2.68-1.78,8.47,8.47,0,0,1,3-.59,7.42,7.42,0,0,1,2.72.44A5.18,5.18,0,0,1,236,45.77a5,5,0,0,1,1.08,1.71,6,6,0,0,1,.35,2v8.22q0,.86,0,1.56c0,.48.05.93.09,1.36h-2.44C235,59.83,235,59,235,58.2h-.06a5.51,5.51,0,0,1-2.16,2.2,6.22,6.22,0,0,1-2.89.65,5.85,5.85,0,0,1-1.92-.31,4.51,4.51,0,0,1-1.6-.91,4.29,4.29,0,0,1-1.08-1.52,5,5,0,0,1-.4-2.08,5.13,5.13,0,0,1,.62-2.62,5,5,0,0,1,1.71-1.71,7.61,7.61,0,0,1,2.53-.95,15.16,15.16,0,0,1,3.09-.29h2V50a3.68,3.68,0,0,0-.21-1.22,3.62,3.62,0,0,0-.64-1.11,3,3,0,0,0-1.07-.78,3.71,3.71,0,0,0-1.52-.29,5.23,5.23,0,0,0-1.39.17,6.57,6.57,0,0,0-1.08.43,4.51,4.51,0,0,0-.88.59l-.76.65Zm7.74,6.39a17.15,17.15,0,0,0-2,.12,6.87,6.87,0,0,0-1.85.46,3.51,3.51,0,0,0-1.38,1,2.69,2.69,0,0,0,.31,3.56,3.75,3.75,0,0,0,2.27.61,4.06,4.06,0,0,0,1.92-.42,3.8,3.8,0,0,0,1.28-1.1,4.79,4.79,0,0,0,.7-1.52,6.65,6.65,0,0,0,.21-1.64v-1Z"/><path class="cls-1" d="M251.72,48.82a5.91,5.91,0,0,0-1.6-1.34,4.49,4.49,0,0,0-4,0,4.22,4.22,0,0,0-1.4,1.26,5.92,5.92,0,0,0-.85,1.83,8.1,8.1,0,0,0-.29,2.16,6.45,6.45,0,0,0,.34,2.12,5.35,5.35,0,0,0,.94,1.75,4.34,4.34,0,0,0,1.46,1.17,4.3,4.3,0,0,0,1.92.43,4.08,4.08,0,0,0,2-.46,5.4,5.4,0,0,0,1.52-1.34l1.95,2.17a6.16,6.16,0,0,1-2.48,1.9,7.75,7.75,0,0,1-3,.58,7.6,7.6,0,0,1-3.06-.61,7,7,0,0,1-2.39-1.72,7.75,7.75,0,0,1-1.56-2.65,10.25,10.25,0,0,1-.54-3.41,10.45,10.45,0,0,1,.54-3.43,8.11,8.11,0,0,1,1.54-2.68,6.91,6.91,0,0,1,2.38-1.75,7.36,7.36,0,0,1,3.09-.63,7.48,7.48,0,0,1,3,.63,6.73,6.73,0,0,1,2.51,1.92Z"/><path class="cls-1" d="M255.65,38.77a2.31,2.31,0,0,1,.59-1.58,1.86,1.86,0,0,1,2.84,0,2.41,2.41,0,0,1,0,3.16,1.86,1.86,0,0,1-2.84,0A2.31,2.31,0,0,1,255.65,38.77Zm.64,5.77H259v16.1h-2.74Z"/><path class="cls-1" d="M262.69,52.59a8.94,8.94,0,0,1,.59-3.29,8.56,8.56,0,0,1,1.63-2.68,7.61,7.61,0,0,1,2.43-1.82,7,7,0,0,1,3-.66,6.94,6.94,0,0,1,3,.66,7.54,7.54,0,0,1,2.44,1.82,8.75,8.75,0,0,1,1.63,2.68,8.94,8.94,0,0,1,.59,3.29,9,9,0,0,1-.59,3.31,8.57,8.57,0,0,1-1.63,2.69,7.93,7.93,0,0,1-2.44,1.8,6.94,6.94,0,0,1-3,.66,7,7,0,0,1-3-.66,8,8,0,0,1-2.43-1.8,8.39,8.39,0,0,1-1.63-2.69A9,9,0,0,1,262.69,52.59Zm2.92,0a7.39,7.39,0,0,0,.33,2.26,5.35,5.35,0,0,0,.95,1.77,4.35,4.35,0,0,0,1.49,1.15,4.77,4.77,0,0,0,4,0,4.35,4.35,0,0,0,1.49-1.15,5.35,5.35,0,0,0,.95-1.77,7.39,7.39,0,0,0,.33-2.26,7.48,7.48,0,0,0-.33-2.26,5.3,5.3,0,0,0-.95-1.76,4.38,4.38,0,0,0-1.49-1.16,4.88,4.88,0,0,0-4,0,4.38,4.38,0,0,0-1.49,1.16,5.3,5.3,0,0,0-.95,1.76A7.48,7.48,0,0,0,265.61,52.59Zm5.94-16h3.9l-4.54,4.89h-2.53Z"/><path class="cls-1" d="M281.48,44.54h2.74V47h.06a4.28,4.28,0,0,1,1.79-2.08,5.43,5.43,0,0,1,3-.8,5.83,5.83,0,0,1,2,.35,4.49,4.49,0,0,1,1.68,1.11,5.38,5.38,0,0,1,1.14,1.92,8.16,8.16,0,0,1,.43,2.76V60.64h-2.74V51.13a6.08,6.08,0,0,0-.28-1.92,3.49,3.49,0,0,0-.73-1.29,2.76,2.76,0,0,0-1-.71,3.47,3.47,0,0,0-1.23-.22,4,4,0,0,0-1.59.31,3.35,3.35,0,0,0-1.28,1,4.74,4.74,0,0,0-.85,1.68,8.62,8.62,0,0,0-.3,2.41v8.29h-2.74Z"/><path class="cls-1" d="M155.61,79.6H159l10.59,17.62h0V79.6h2.61V101H169l-10.7-17.62h-.06V101h-2.6ZM159.38,78a5,5,0,0,1,.3-1.16,3.65,3.65,0,0,1,.56-1,2.63,2.63,0,0,1,.81-.71,2.13,2.13,0,0,1,1.07-.27,3.1,3.1,0,0,1,1.18.22c.38.15.74.31,1.1.47s.52.24.72.35a1.6,1.6,0,0,0,.75.17,1.06,1.06,0,0,0,.87-.4,2.26,2.26,0,0,0,.46-.93h1.3a5.63,5.63,0,0,1-.27,1.13,4.37,4.37,0,0,1-.49,1,2.21,2.21,0,0,1-.74.72,2,2,0,0,1-1.05.27,3.34,3.34,0,0,1-1.12-.19,11.6,11.6,0,0,1-1.08-.44l-.87-.38a2.31,2.31,0,0,0-.92-.2,1,1,0,0,0-.83.41,2.52,2.52,0,0,0-.45.93Z"/><path class="cls-1" d="M176.22,81.54a2,2,0,0,1,.53-1.41,1.64,1.64,0,0,1,2.52,0,2,2,0,0,1,.53,1.41,2,2,0,0,1-.53,1.41,1.64,1.64,0,0,1-2.52,0A2,2,0,0,1,176.22,81.54Zm.57,5.15h2.44V101h-2.44Z"/><path class="cls-1" d="M183.11,86.69h2.45V88.9h.05A3.93,3.93,0,0,1,187.22,87a4.88,4.88,0,0,1,2.63-.71,5.14,5.14,0,0,1,1.78.32,3.91,3.91,0,0,1,1.49,1,4.81,4.81,0,0,1,1,1.71,7.33,7.33,0,0,1,.38,2.47V101h-2.44V92.56a5.06,5.06,0,0,0-.25-1.71,3.18,3.18,0,0,0-.65-1.15,2.39,2.39,0,0,0-.94-.64,3.14,3.14,0,0,0-1.1-.19,3.69,3.69,0,0,0-1.41.27,3,3,0,0,0-1.14.86,4.23,4.23,0,0,0-.76,1.5,7.6,7.6,0,0,0-.27,2.15V101h-2.45Zm1.15-3.09a5.24,5.24,0,0,1,.29-1.15,3.84,3.84,0,0,1,.56-1,2.79,2.79,0,0,1,.82-.71,2.1,2.1,0,0,1,1.07-.27,3.13,3.13,0,0,1,1.18.22l1.1.47.72.35a1.6,1.6,0,0,0,.75.17,1.05,1.05,0,0,0,.86-.39,2.38,2.38,0,0,0,.47-.94h1.3a6.4,6.4,0,0,1-.27,1.13,4.58,4.58,0,0,1-.49,1,2.34,2.34,0,0,1-.75.72,2,2,0,0,1-1,.28,3.41,3.41,0,0,1-1.13-.2,11.4,11.4,0,0,1-1.07-.44l-.87-.38a2.39,2.39,0,0,0-.92-.2,1,1,0,0,0-.83.41,2.59,2.59,0,0,0-.45.93Z"/><path class="cls-1" d="M197.59,93.86a8.12,8.12,0,0,1,.53-2.94,7.93,7.93,0,0,1,1.45-2.39,7,7,0,0,1,2.17-1.62,6.43,6.43,0,0,1,5.38,0,6.93,6.93,0,0,1,2.17,1.62,8,8,0,0,1,1.46,2.39,8.45,8.45,0,0,1,0,5.89,7.65,7.65,0,0,1-1.46,2.4,6.87,6.87,0,0,1-2.17,1.6,6.43,6.43,0,0,1-5.38,0,7,7,0,0,1-2.17-1.6,7.62,7.62,0,0,1-1.45-2.4A8.18,8.18,0,0,1,197.59,93.86Zm2.61,0a6.53,6.53,0,0,0,.3,2,4.38,4.38,0,0,0,.84,1.57,3.87,3.87,0,0,0,1.33,1,4,4,0,0,0,1.76.38,4.1,4.1,0,0,0,1.77-.38,4,4,0,0,0,1.33-1,4.71,4.71,0,0,0,.84-1.57,6.92,6.92,0,0,0,0-4,4.76,4.76,0,0,0-.84-1.58,3.89,3.89,0,0,0-3.1-1.4,3.89,3.89,0,0,0-3.09,1.4,4.43,4.43,0,0,0-.84,1.58A6.47,6.47,0,0,0,200.2,93.86Z"/><path class="cls-1" d="M220.37,86.69h2.83L227,97.89h.05l3.66-11.2h2.61l-6.11,17.44c-.22.62-.45,1.19-.68,1.71a4.91,4.91,0,0,1-.84,1.31,3.21,3.21,0,0,1-1.17.85,4.25,4.25,0,0,1-1.69.31,8.26,8.26,0,0,1-1.1-.08,3.67,3.67,0,0,1-1.07-.32l.3-2.48a3.52,3.52,0,0,0,1.46.33,2.45,2.45,0,0,0,.95-.16,2,2,0,0,0,.68-.49,2.67,2.67,0,0,0,.47-.74c.13-.28.25-.61.38-1l.79-2.27Z"/><path class="cls-1" d="M257,84.23A5.62,5.62,0,0,0,255,82.42a5.53,5.53,0,0,0-2.58-.64,6.41,6.41,0,0,0-2.95.68,7.18,7.18,0,0,0-2.25,1.86,8.79,8.79,0,0,0-1.45,2.77,10.82,10.82,0,0,0-.52,3.41,10.57,10.57,0,0,0,.49,3.21,8.51,8.51,0,0,0,1.41,2.67,6.76,6.76,0,0,0,2.26,1.81,6.54,6.54,0,0,0,3,.67,5.47,5.47,0,0,0,2.91-.76A6.5,6.5,0,0,0,257.42,96l2.2,1.85a9.43,9.43,0,0,1-.77,1,7.54,7.54,0,0,1-1.43,1.24,9.47,9.47,0,0,1-2.16,1.09,8.24,8.24,0,0,1-2.92.47,8.64,8.64,0,0,1-4.12-1,10,10,0,0,1-3.12-2.54,11.37,11.37,0,0,1-2-3.56,12.37,12.37,0,0,1-.68-4,13.89,13.89,0,0,1,.74-4.59,10.92,10.92,0,0,1,2.05-3.63,9.16,9.16,0,0,1,3.16-2.38,9.72,9.72,0,0,1,4.07-.85,9.21,9.21,0,0,1,3.74.82,7.17,7.17,0,0,1,3,2.52Z"/><path class="cls-1" d="M262.2,88.44a6.77,6.77,0,0,1,2.39-1.59,7.46,7.46,0,0,1,2.71-.53,6.58,6.58,0,0,1,2.43.4,4.48,4.48,0,0,1,1.67,1.06,4.16,4.16,0,0,1,1,1.52,5.51,5.51,0,0,1,.31,1.81v7.32c0,.51,0,1,0,1.4s0,.82.08,1.21h-2.18c-.05-.73-.08-1.46-.08-2.18h0a5,5,0,0,1-1.93,2,5.57,5.57,0,0,1-2.58.57,5.37,5.37,0,0,1-1.71-.27,4.14,4.14,0,0,1-1.43-.82,3.81,3.81,0,0,1-1-1.35,5.17,5.17,0,0,1,.2-4.19,4.37,4.37,0,0,1,1.52-1.53,7,7,0,0,1,2.26-.85,14.2,14.2,0,0,1,2.75-.25h1.8v-.61a3.47,3.47,0,0,0-.19-1.09,3.11,3.11,0,0,0-.57-1,2.67,2.67,0,0,0-.95-.7,3.33,3.33,0,0,0-1.36-.26,4.63,4.63,0,0,0-1.24.15,5.19,5.19,0,0,0-1,.38,4.36,4.36,0,0,0-.79.53l-.68.58Zm6.89,5.69a15.6,15.6,0,0,0-1.78.11,6.43,6.43,0,0,0-1.65.41,3,3,0,0,0-1.22.85,2,2,0,0,0-.48,1.39,2.07,2.07,0,0,0,.75,1.79,3.38,3.38,0,0,0,2,.54,3.49,3.49,0,0,0,1.71-.38,3.3,3.3,0,0,0,1.14-1,4,4,0,0,0,.63-1.35A6.18,6.18,0,0,0,270.4,95v-.91Zm-.7-14.53h3.47l-4,4.36h-2.26Z"/><path class="cls-1" d="M276.24,86.69h2.44V88.9h.05A3.93,3.93,0,0,1,280.34,87a4.88,4.88,0,0,1,2.63-.71,5.1,5.1,0,0,1,1.78.32,3.91,3.91,0,0,1,1.49,1,4.81,4.81,0,0,1,1,1.71,7.33,7.33,0,0,1,.38,2.47V101H285.2V92.56a5.06,5.06,0,0,0-.25-1.71,3.18,3.18,0,0,0-.65-1.15,2.39,2.39,0,0,0-.94-.64,3.14,3.14,0,0,0-1.1-.19,3.69,3.69,0,0,0-1.41.27,3,3,0,0,0-1.14.86,4.23,4.23,0,0,0-.76,1.5,7.6,7.6,0,0,0-.27,2.15V101h-2.44Z"/><path class="cls-1" d="M300.54,90.5a5.41,5.41,0,0,0-1.43-1.2,4.09,4.09,0,0,0-3.53,0,3.8,3.8,0,0,0-1.24,1.12,5.39,5.39,0,0,0-.77,1.64,7.22,7.22,0,0,0-.25,1.92,6,6,0,0,0,.3,1.9,4.73,4.73,0,0,0,.84,1.55,3.77,3.77,0,0,0,1.3,1,3.84,3.84,0,0,0,1.71.38,3.62,3.62,0,0,0,1.77-.41,4.43,4.43,0,0,0,1.35-1.2l1.74,1.94a5.52,5.52,0,0,1-2.21,1.7,7.06,7.06,0,0,1-2.68.51,6.71,6.71,0,0,1-2.72-.54,6.45,6.45,0,0,1-2.14-1.53A7,7,0,0,1,291.2,97a9,9,0,0,1-.49-3,9.09,9.09,0,0,1,.49-3.06,7.12,7.12,0,0,1,1.37-2.39,6.35,6.35,0,0,1,2.12-1.56,6.62,6.62,0,0,1,2.75-.56,6.78,6.78,0,0,1,2.71.56,6.16,6.16,0,0,1,2.24,1.71Z"/><path class="cls-1" d="M306.27,94.86a3.83,3.83,0,0,0,.37,1.71,4,4,0,0,0,1,1.32,4.37,4.37,0,0,0,1.39.85,4.49,4.49,0,0,0,1.63.3,3.38,3.38,0,0,0,2-.59,6.75,6.75,0,0,0,1.55-1.56L316,98.46a7,7,0,0,1-8.46,2.37,6.21,6.21,0,0,1-2.09-1.59,7.14,7.14,0,0,1-1.31-2.4,9.22,9.22,0,0,1-.47-3,8.52,8.52,0,0,1,.51-3,7.31,7.31,0,0,1,1.38-2.39,6.23,6.23,0,0,1,2.11-1.59,6.06,6.06,0,0,1,2.66-.58,5.6,5.6,0,0,1,4.83,2.41,7.21,7.21,0,0,1,1.1,2.42,11,11,0,0,1,.34,2.74v1ZM314,92.68a6.57,6.57,0,0,0-.25-1.66,3.79,3.79,0,0,0-.7-1.32,3.24,3.24,0,0,0-1.15-.88,3.87,3.87,0,0,0-1.62-.32,3.63,3.63,0,0,0-1.64.38,4,4,0,0,0-1.26,1,4.63,4.63,0,0,0-.8,1.35,4.13,4.13,0,0,0-.29,1.47Z"/><path class="cls-1" d="M319.52,86.69H322V88.9h0a3.77,3.77,0,0,1,.65-1.05,4.58,4.58,0,0,1,.91-.8,4.66,4.66,0,0,1,1.1-.53,3.87,3.87,0,0,1,1.2-.2,3.06,3.06,0,0,1,1.08.18l-.1,2.94q-.3-.09-.6-.15a3.05,3.05,0,0,0-.6-.06,3.38,3.38,0,0,0-2.74,1.12,5.28,5.28,0,0,0-.95,3.48V101h-2.45Z"/></g></svg>